<?xml version="1.0" encoding="UTF-8"?>
<svg id="Layer_2" data-name="Layer 2" xmlns="http://www.w3.org/2000/svg" viewBox="0 0 1620.99 217.56">
  <defs>
    <style>
      .cls-1 {
        fill: #fff;
        stroke-width: 0px;
      }
    </style>
  </defs>
  <g id="Calque_1" data-name="Calque 1">
    <g>
      <g>
        <path class="cls-1" d="m319.84,28.6c-50.8,0-84.73,32.12-84.73,80.18s33.93,80.18,84.73,80.18,84.95-32.12,84.95-80.18-33.93-80.18-84.95-80.18Zm0,135.75c-33.71,0-56.71-22.31-56.71-55.57s23-55.57,56.71-55.57,56.71,22.31,56.71,55.57-22.78,55.57-56.71,55.57Z"/>
        <path class="cls-1" d="m542.6,31.36v112.28l-86.32-112.28h-34.6v154.85h26.41V62.31l95.21,123.9h25.73V31.36h-26.43Z"/>
        <path class="cls-1" d="m621.45,162.54V31.36h-27.57v154.85h132.8v-23.67h-105.22Z"/>
        <path class="cls-1" d="m814.6,31.36l-46.92,58.97-46.92-58.97h-34.85l67.19,84.03v70.82h27.8v-70.82l67.19-84.03h-33.48Z"/>
        <path class="cls-1" d="m893.64,155.71V31.36h-35.52v154.85h120.62l14.9-30.5h-100.01Z"/>
        <path class="cls-1" d="m1099.54,31.36h-36.42l-68.56,154.85h37.11l13.89-32.79h69.93l13.91,32.79h38.7l-68.56-154.85Zm-41.43,92.46l22.53-56.26,22.33,56.26h-44.86Z"/>
        <path class="cls-1" d="m1257.45,31.36l-39.4,52.61-39.64-52.61h-44.41l65.13,85.4v69.45h35.77v-69.45l65.13-85.4h-42.58Z"/>
        <path class="cls-1" d="m1451.5,61.86v-30.5h-140.07v154.85h140.07v-30.5h-104.55v-32.12h89.75v-30.53h-89.75v-31.2h104.55Z"/>
        <path class="cls-1" d="m1580.23,126.54c21.86-5.91,33.24-21.64,33.24-46.23,0-31.89-19.35-48.96-55.34-48.96h-92.23v154.85h35.52V61.86h52.83c15.72,0,23.03,5.94,23.03,18.46s-7.3,18.46-23.03,18.46h-34.25l20.59,30.5,38.5,56.93h41.9l-40.76-59.67Z"/>
      </g>
      <g>
        <polygon class="cls-1" points="209.26 130.89 122.58 217.56 122.58 152.14 209.25 65.46 209.26 130.89"/>
        <polygon class="cls-1" points="76.32 198.37 0 198.37 0 152.1 122.58 152.1 76.32 198.37"/>
        <polygon class="cls-1" points="132.94 19.19 209.26 19.19 209.26 65.46 86.68 65.46 132.94 19.19"/>
        <polygon class="cls-1" points="0 86.68 86.68 0 86.68 65.43 0 152.1 0 86.68"/>
      </g>
    </g>
  </g>
</svg>