<?xml version="1.0" encoding="UTF-8"?>
<svg id="Layer_2" data-name="Layer 2" xmlns="http://www.w3.org/2000/svg" xmlns:xlink="http://www.w3.org/1999/xlink" viewBox="0 0 1620.99 217.56">
  <defs>
    <style>
      .cls-1 {
        fill: url(#Dégradé_sans_nom_14-5);
      }

      .cls-1, .cls-2, .cls-3, .cls-4, .cls-5, .cls-6, .cls-7, .cls-8, .cls-9, .cls-10 {
        stroke-width: 0px;
      }

      .cls-2 {
        fill: url(#Dégradé_sans_nom_14-6);
      }

      .cls-3 {
        fill: url(#Dégradé_sans_nom_14-7);
      }

      .cls-4 {
        fill: url(#Dégradé_sans_nom_14-4);
      }

      .cls-5 {
        fill: url(#Dégradé_sans_nom_14-3);
      }

      .cls-6 {
        fill: url(#Dégradé_sans_nom_14-2);
      }

      .cls-7 {
        fill: url(#Dégradé_sans_nom_14-8);
      }

      .cls-8 {
        fill: url(#Dégradé_sans_nom_14-9);
      }

      .cls-9 {
        fill: #fff;
      }

      .cls-10 {
        fill: url(#Dégradé_sans_nom_14);
      }
    </style>
    <linearGradient id="Dégradé_sans_nom_14" data-name="Dégradé sans nom 14" x1="929.52" y1="327.76" x2="920.62" y2="-56.63" gradientUnits="userSpaceOnUse">
      <stop offset="0" stop-color="#3d3dea"/>
      <stop offset="1" stop-color="#6489ff"/>
    </linearGradient>
    <linearGradient id="Dégradé_sans_nom_14-2" data-name="Dégradé sans nom 14" x1="1084.53" y1="324.17" x2="1075.63" y2="-60.22" xlink:href="#Dégradé_sans_nom_14"/>
    <linearGradient id="Dégradé_sans_nom_14-3" data-name="Dégradé sans nom 14" x1="1223.72" y1="320.95" x2="1214.82" y2="-63.44" xlink:href="#Dégradé_sans_nom_14"/>
    <linearGradient id="Dégradé_sans_nom_14-4" data-name="Dégradé sans nom 14" x1="1386.29" y1="317.19" x2="1377.39" y2="-67.2" xlink:href="#Dégradé_sans_nom_14"/>
    <linearGradient id="Dégradé_sans_nom_14-5" data-name="Dégradé sans nom 14" x1="1546.38" y1="313.48" x2="1537.49" y2="-70.91" xlink:href="#Dégradé_sans_nom_14"/>
    <linearGradient id="Dégradé_sans_nom_14-6" data-name="Dégradé sans nom 14" x1="53.76" y1="253.68" x2="246.6" y2="60.83" xlink:href="#Dégradé_sans_nom_14"/>
    <linearGradient id="Dégradé_sans_nom_14-7" data-name="Dégradé sans nom 14" x1="6.74" y1="206.66" x2="199.58" y2="13.81" xlink:href="#Dégradé_sans_nom_14"/>
    <linearGradient id="Dégradé_sans_nom_14-8" data-name="Dégradé sans nom 14" x1="6.75" y1="206.67" x2="199.6" y2="13.83" xlink:href="#Dégradé_sans_nom_14"/>
    <linearGradient id="Dégradé_sans_nom_14-9" data-name="Dégradé sans nom 14" x1="-40.26" y1="159.66" x2="152.58" y2="-33.19" xlink:href="#Dégradé_sans_nom_14"/>
  </defs>
  <g id="Calque_1" data-name="Calque 1">
    <g>
      <g>
        <path class="cls-9" d="m319.84,28.6c-50.8,0-84.73,32.12-84.73,80.18s33.93,80.18,84.73,80.18,84.95-32.12,84.95-80.18-33.93-80.18-84.95-80.18Zm0,135.75c-33.71,0-56.71-22.31-56.71-55.57s23-55.57,56.71-55.57,56.71,22.31,56.71,55.57-22.78,55.57-56.71,55.57Z"/>
        <path class="cls-9" d="m542.6,31.36v112.28l-86.32-112.28h-34.6v154.85h26.41V62.31l95.21,123.9h25.73V31.36h-26.43Z"/>
        <path class="cls-9" d="m621.45,162.54V31.36h-27.57v154.85h132.8v-23.67h-105.22Z"/>
        <path class="cls-9" d="m814.6,31.36l-46.92,58.97-46.92-58.97h-34.85l67.19,84.03v70.82h27.8v-70.82l67.19-84.03h-33.48Z"/>
        <path class="cls-10" d="m893.64,155.71V31.36h-35.52v154.85h120.62l14.9-30.5h-100.01Z"/>
        <path class="cls-6" d="m1099.54,31.36h-36.42l-68.56,154.85h37.11l13.89-32.79h69.93l13.91,32.79h38.7l-68.56-154.85Zm-41.43,92.46l22.53-56.26,22.33,56.26h-44.86Z"/>
        <path class="cls-5" d="m1257.45,31.36l-39.4,52.61-39.64-52.61h-44.41l65.13,85.4v69.45h35.77v-69.45l65.13-85.4h-42.58Z"/>
        <path class="cls-4" d="m1451.5,61.86v-30.5h-140.07v154.85h140.07v-30.5h-104.55v-32.12h89.75v-30.53h-89.75v-31.2h104.55Z"/>
        <path class="cls-1" d="m1580.23,126.54c21.86-5.91,33.24-21.64,33.24-46.23,0-31.89-19.35-48.96-55.34-48.96h-92.23v154.85h35.52V61.86h52.83c15.72,0,23.03,5.94,23.03,18.46s-7.3,18.46-23.03,18.46h-34.25l20.59,30.5,38.5,56.93h41.9l-40.76-59.67Z"/>
      </g>
      <g>
        <polygon class="cls-2" points="209.26 130.89 122.58 217.56 122.58 152.14 209.25 65.46 209.26 130.89"/>
        <polygon class="cls-3" points="76.32 198.37 0 198.37 0 152.1 122.58 152.1 76.32 198.37"/>
        <polygon class="cls-7" points="132.94 19.19 209.26 19.19 209.26 65.46 86.68 65.46 132.94 19.19"/>
        <polygon class="cls-8" points="0 86.68 86.68 0 86.68 65.43 0 152.1 0 86.68"/>
      </g>
    </g>
  </g>
</svg>