<?xml version="1.0" encoding="UTF-8"?>
<svg id="Calque_1" data-name="Calque 1" xmlns="http://www.w3.org/2000/svg" xmlns:xlink="http://www.w3.org/1999/xlink" viewBox="0 0 1700 1070">
  <defs>
    <style>
      .cls-1 {
        fill: url(#Dégradé_sans_nom_14-5);
      }

      .cls-1, .cls-2, .cls-3, .cls-4, .cls-5, .cls-6, .cls-7, .cls-8, .cls-9, .cls-10, .cls-11 {
        stroke-width: 0px;
      }

      .cls-2 {
        fill: url(#Dégradé_sans_nom_14-6);
      }

      .cls-3 {
        fill: url(#Dégradé_sans_nom_14-7);
      }

      .cls-4 {
        fill: url(#Dégradé_sans_nom_14-4);
      }

      .cls-5 {
        fill: url(#Dégradé_sans_nom_14-3);
      }

      .cls-6 {
        fill: url(#Dégradé_sans_nom_14-2);
      }

      .cls-7 {
        fill: url(#Dégradé_sans_nom_14-8);
      }

      .cls-8 {
        fill: url(#Dégradé_sans_nom_3);
      }

      .cls-10 {
        fill: #fff;
      }

      .cls-11 {
        fill: url(#Dégradé_sans_nom_14);
      }
    </style>
    <linearGradient id="Dégradé_sans_nom_14" data-name="Dégradé sans nom 14" x1="915.25" y1="655.04" x2="910.37" y2="444.32" gradientUnits="userSpaceOnUse">
      <stop offset="0" stop-color="#3d3dea"/>
      <stop offset="1" stop-color="#6489ff"/>
    </linearGradient>
    <linearGradient id="Dégradé_sans_nom_14-2" data-name="Dégradé sans nom 14" x1="1000.23" y1="653.08" x2="995.35" y2="442.35" xlink:href="#Dégradé_sans_nom_14"/>
    <linearGradient id="Dégradé_sans_nom_3" data-name="Dégradé sans nom 3" x1="1076.53" y1="651.31" x2="1071.65" y2="440.59" gradientUnits="userSpaceOnUse">
      <stop offset="0" stop-color="#3d3dea"/>
      <stop offset="1" stop-color="#6489ff"/>
    </linearGradient>
    <linearGradient id="Dégradé_sans_nom_14-3" data-name="Dégradé sans nom 14" x1="1165.65" y1="649.25" x2="1160.77" y2="438.52" xlink:href="#Dégradé_sans_nom_14"/>
    <linearGradient id="Dégradé_sans_nom_14-4" data-name="Dégradé sans nom 14" x1="1253.41" y1="647.22" x2="1248.54" y2="436.49" xlink:href="#Dégradé_sans_nom_14"/>
    <linearGradient id="Dégradé_sans_nom_14-5" data-name="Dégradé sans nom 14" x1="435.16" y1="614.43" x2="540.87" y2="508.71" xlink:href="#Dégradé_sans_nom_14"/>
    <linearGradient id="Dégradé_sans_nom_14-6" data-name="Dégradé sans nom 14" x1="409.38" y1="588.66" x2="515.1" y2="482.94" xlink:href="#Dégradé_sans_nom_14"/>
    <linearGradient id="Dégradé_sans_nom_14-7" data-name="Dégradé sans nom 14" x1="409.39" y1="588.66" x2="515.11" y2="482.95" xlink:href="#Dégradé_sans_nom_14"/>
    <linearGradient id="Dégradé_sans_nom_14-8" data-name="Dégradé sans nom 14" x1="383.62" y1="562.89" x2="489.33" y2="457.17" xlink:href="#Dégradé_sans_nom_14"/>
  </defs>
  <rect class="cls-9" x="-24.8" y="-47.57" width="1749.61" height="1165.15"/>
  <g>
    <g>
      <path class="cls-10" d="m581.02,491.04c-27.85,0-46.45,17.61-46.45,43.96s18.6,43.96,46.45,43.96,46.57-17.61,46.57-43.96-18.6-43.96-46.57-43.96Zm0,74.42c-18.48,0-31.09-12.23-31.09-30.46s12.61-30.46,31.09-30.46,31.09,12.23,31.09,30.46-12.49,30.46-31.09,30.46Z"/>
      <path class="cls-10" d="m703.14,492.55v61.55l-47.32-61.55h-18.97v84.89h14.48v-67.92l52.2,67.92h14.11v-84.89h-14.49Z"/>
      <path class="cls-10" d="m746.36,564.47v-71.91h-15.12v84.89h72.8v-12.98h-57.68Z"/>
      <path class="cls-10" d="m852.25,492.55l-25.72,32.33-25.72-32.33h-19.11l36.83,46.07v38.82h15.24v-38.82l36.83-46.07h-18.36Z"/>
      <path class="cls-11" d="m895.58,560.72v-68.17h-19.47v84.89h66.13l8.17-16.72h-54.82Z"/>
      <path class="cls-6" d="m1008.46,492.55h-19.96l-37.58,84.89h20.34l7.61-17.97h38.33l7.63,17.97h21.22l-37.58-84.89Zm-22.71,50.68l12.35-30.84,12.24,30.84h-24.59Z"/>
      <path class="cls-8" d="m1095.02,492.55l-21.6,28.84-21.73-28.84h-24.35l35.7,46.82v38.07h19.61v-38.07l35.7-46.82h-23.34Z"/>
      <path class="cls-5" d="m1201.4,509.28v-16.72h-76.79v84.89h76.79v-16.72h-57.32v-17.61h49.2v-16.74h-49.2v-17.1h57.32Z"/>
      <path class="cls-4" d="m1271.97,544.74c11.98-3.24,18.22-11.86,18.22-25.34,0-17.48-10.61-26.84-30.34-26.84h-50.56v84.89h19.47v-68.17h28.96c8.62,0,12.62,3.25,12.62,10.12s-4,10.12-12.62,10.12h-18.78l11.29,16.72,21.11,31.21h22.97l-22.35-32.71Z"/>
    </g>
    <g>
      <polygon class="cls-1" points="520.4 547.12 472.89 594.63 472.89 558.77 520.4 511.25 520.4 547.12"/>
      <polygon class="cls-2" points="447.53 584.11 405.69 584.11 405.69 558.75 472.89 558.75 447.53 584.11"/>
      <polygon class="cls-3" points="478.57 485.89 520.4 485.89 520.4 511.25 453.21 511.25 478.57 485.89"/>
      <polygon class="cls-7" points="405.69 522.88 453.2 475.37 453.21 511.23 405.69 558.75 405.69 522.88"/>
    </g>
  </g>
</svg>